<svg width="18" height="18" viewBox="0 0 18 18" fill="none" xmlns="http://www.w3.org/2000/svg">
<g clip-path="url(#clip0_5_11)">
<path d="M3.98918 10.8776L3.36263 13.2166L1.07258 13.2651C0.388195 11.9957 0 10.5434 0 8.99999C0 7.50757 0.362953 6.1002 1.00631 4.86098H1.0068L3.04559 5.23476L3.9387 7.26131C3.75177 7.80626 3.64989 8.39126 3.64989 8.99999C3.64996 9.66065 3.76963 10.2936 3.98918 10.8776Z" fill="#FBBB00"/>
<path d="M17.8428 7.31868C17.9461 7.86311 18 8.42536 18 8.99999C18 9.64434 17.9323 10.2729 17.8032 10.8791C17.3651 12.9422 16.2203 14.7437 14.6344 16.0185L14.6339 16.018L12.066 15.887L11.7025 13.6182C12.7548 13.0011 13.5772 12.0353 14.0104 10.8791H9.19788V7.31868H14.0806H17.8428Z" fill="#518EF8"/>
<path d="M14.6339 16.0181L14.6344 16.0186C13.092 17.2583 11.1328 18 8.99999 18C5.57257 18 2.59269 16.0843 1.07257 13.2652L3.98917 10.8777C4.74921 12.9061 6.70597 14.3501 8.99999 14.3501C9.98601 14.3501 10.9098 14.0836 11.7024 13.6182L14.6339 16.0181Z" fill="#28B446"/>
<path d="M14.7446 2.07197L11.829 4.45894C11.0086 3.94615 10.0389 3.64992 8.99991 3.64992C6.65397 3.64992 4.66061 5.16013 3.93864 7.26131L1.00672 4.86098H1.00623C2.50409 1.97307 5.52155 0 8.99991 0C11.1836 0 13.1859 0.777867 14.7446 2.07197Z" fill="#F14336"/>
</g>
<defs>
<clipPath id="clip0_5_11">
<rect width="18" height="18" fill="white"/>
</clipPath>
</defs>
</svg>
